# xmcd
#
# Track frame offsets: 
#        150
#        14910
#        28275
#        40672
#        55637
#        67425
#        80015
#        93580
#        108095
#        121195
#        135322
#        148655
#
# Disc length: 2150 seconds
#
# Revision: 1
# Processed by: cddbd v1.5.1PL0 Copyright (c) Steve Scherf et al.
# Submitted via: ExactAudioCopy v0.95a4
#
DISCID=a908640c
DTITLE=The Four Tops - Reach Out
DYEAR=1900
DGENRE=
TTITLE0=Reach Out I'll Be There
TTITLE1=Baby I Need Your Lovin'
TTITLE2=I Can't Help Myself
TTITLE3=Ain't No Woman
TTITLE4=It's All In The Game
TTITLE5=It's The Same Old Song
TTITLE6=Just Seven Numbers
TTITLE7=Bernadette
TTITLE8=Shake Me, Wake Me
TTITLE9=You Keep Runnin' Away
TTITLE10=Something About You
TTITLE11=Walk Away Renee
EXTD=
EXTT0=
EXTT1=
EXTT2=
EXTT3=
EXTT4=
EXTT5=
EXTT6=
EXTT7=
EXTT8=
EXTT9=
EXTT10=
EXTT11=
PLAYORDER=
